<svg width="52" height="52" viewBox="0 0 52 52" fill="none" xmlns="http://www.w3.org/2000/svg">
<g id="Frame 1">
<path id="Vector" d="M14.0074 25.471C14.006 24.8546 14.2616 24.2572 14.7299 23.7825L30.4361 7.95307C30.9693 7.4143 31.7355 7.07548 32.5661 7.01116C33.3967 6.94684 34.2237 7.16229 34.8652 7.6101C35.5067 8.05791 35.9101 8.70141 35.9867 9.39903C36.0633 10.0966 35.8068 10.7912 35.2736 11.33L21.2009 25.471L34.771 39.6119C35.0319 39.8818 35.2268 40.1923 35.3444 40.5256C35.4619 40.8589 35.4999 41.2085 35.4561 41.5542C35.4124 41.8999 35.2877 42.2349 35.0892 42.5399C34.8908 42.845 34.6225 43.1142 34.2998 43.3319C33.9768 43.5735 33.5979 43.7565 33.1868 43.8694C32.7757 43.9823 32.3413 44.0226 31.9107 43.988C31.4802 43.9533 31.0628 43.8443 30.6847 43.6679C30.3066 43.4914 29.976 43.2513 29.7136 42.9625L14.5414 27.1331C14.1472 26.6448 13.9591 26.0596 14.0074 25.471Z" fill="white"/>
</g>
</svg>
