<svg width="404" height="114" viewBox="0 0 404 114" fill="none" xmlns="http://www.w3.org/2000/svg">
<g clip-path="url(#clip0_107_183)">
<g filter="url(#filter0_f_107_183)">
<path d="M241.433 94H162.567V79.2H20L100.889 57H60.4444L202 20L343.556 57H303.111L384 79.2H241.433V94ZM95.8333 71.8H176.722H138.3H265.7H227.278H308.167H95.8333ZM95.8333 71.8H308.167L227.278 49.6H265.7L202 32.95L138.3 49.6H176.722L95.8333 71.8Z" fill="#6AAA00"/>
</g>
<g filter="url(#filter1_i_107_183)">
<path d="M50.7613 68.4621C48.8853 68.4621 47.2473 68.1261 45.8473 67.4541C44.4753 66.7541 43.2993 65.7881 42.3193 64.5561L46.7293 60.3141C47.2333 61.0141 47.8213 61.5461 48.4933 61.9101C49.1933 62.2741 49.9773 62.4561 50.8453 62.4561C51.6853 62.4561 52.4133 62.2881 53.0293 61.9521C53.6453 61.5881 54.1353 61.0841 54.4993 60.4401C54.8633 59.7681 55.0453 58.9421 55.0453 57.9621V38.3481H61.6813V57.5841C61.6813 59.7961 61.2333 61.7141 60.3373 63.3381C59.4413 64.9621 58.1813 66.2221 56.5573 67.1181C54.9333 68.0141 53.0013 68.4621 50.7613 68.4621ZM74.8789 68.4201C73.0029 68.4201 71.3229 67.9581 69.8389 67.0341C68.3829 66.1101 67.2209 64.8501 66.3529 63.2541C65.5129 61.6581 65.0929 59.8381 65.0929 57.7941C65.0929 55.7501 65.5129 53.9301 66.3529 52.3341C67.2209 50.7381 68.3829 49.4781 69.8389 48.5541C71.3229 47.6301 73.0029 47.1681 74.8789 47.1681C76.2509 47.1681 77.4829 47.4341 78.5749 47.9661C79.6949 48.4981 80.6049 49.2401 81.3049 50.1921C82.0049 51.1161 82.3969 52.1801 82.4809 53.3841V62.2041C82.3969 63.4081 82.0049 64.4861 81.3049 65.4381C80.6329 66.3621 79.7369 67.0901 78.6169 67.6221C77.4969 68.1541 76.2509 68.4201 74.8789 68.4201ZM76.1809 62.6241C77.5529 62.6241 78.6589 62.1761 79.4989 61.2801C80.3389 60.3561 80.7589 59.1941 80.7589 57.7941C80.7589 56.8421 80.5629 56.0021 80.1709 55.2741C79.8069 54.5461 79.2749 53.9861 78.5749 53.5941C77.9029 53.1741 77.1189 52.9641 76.2229 52.9641C75.3269 52.9641 74.5289 53.1741 73.8289 53.5941C73.1569 53.9861 72.6109 54.5461 72.1909 55.2741C71.7989 56.0021 71.6029 56.8421 71.6029 57.7941C71.6029 58.7181 71.7989 59.5441 72.1909 60.2721C72.5829 61.0001 73.1289 61.5741 73.8289 61.9941C74.5289 62.4141 75.3129 62.6241 76.1809 62.6241ZM80.5069 68.0001V62.4981L81.4729 57.5421L80.5069 52.5861V47.5881H86.8069V68.0001H80.5069ZM91.3314 68.0001V47.5881H97.7574V68.0001H91.3314ZM97.7574 56.7861L95.0694 54.6861C95.6014 52.3061 96.4974 50.4581 97.7574 49.1421C99.0174 47.8261 100.767 47.1681 103.007 47.1681C103.987 47.1681 104.841 47.3221 105.569 47.6301C106.325 47.9101 106.983 48.3581 107.543 48.9741L103.721 53.8041C103.441 53.4961 103.091 53.2581 102.671 53.0901C102.251 52.9221 101.775 52.8381 101.243 52.8381C100.179 52.8381 99.3254 53.1741 98.6814 53.8461C98.0654 54.4901 97.7574 55.4701 97.7574 56.7861ZM117.375 68.4201C115.443 68.4201 113.721 67.9581 112.209 67.0341C110.725 66.1101 109.549 64.8501 108.681 63.2541C107.841 61.6581 107.421 59.8381 107.421 57.7941C107.421 55.7501 107.841 53.9301 108.681 52.3341C109.549 50.7381 110.725 49.4781 112.209 48.5541C113.721 47.6301 115.443 47.1681 117.375 47.1681C118.775 47.1681 120.035 47.4341 121.155 47.9661C122.303 48.4981 123.241 49.2401 123.969 50.1921C124.725 51.1161 125.145 52.1801 125.229 53.3841V61.9941C125.145 63.1981 124.739 64.2901 124.011 65.2701C123.283 66.2221 122.345 66.9921 121.197 67.5801C120.049 68.1401 118.775 68.4201 117.375 68.4201ZM118.509 62.6241C119.433 62.6241 120.231 62.4281 120.903 62.0361C121.575 61.6161 122.107 61.0421 122.499 60.3141C122.891 59.5861 123.087 58.7461 123.087 57.7941C123.087 56.8421 122.891 56.0161 122.499 55.3161C122.135 54.5881 121.603 54.0141 120.903 53.5941C120.231 53.1741 119.447 52.9641 118.551 52.9641C117.655 52.9641 116.857 53.1741 116.157 53.5941C115.485 54.0141 114.939 54.5881 114.519 55.3161C114.127 56.0441 113.931 56.8701 113.931 57.7941C113.931 58.7181 114.127 59.5441 114.519 60.2721C114.911 61.0001 115.457 61.5741 116.157 61.9941C116.857 62.4141 117.641 62.6241 118.509 62.6241ZM129.135 68.0001H122.835V62.4981L123.801 57.5421L122.709 52.5861V37.5081H129.135V68.0001ZM133.66 68.0001V47.5881H140.086V68.0001H133.66ZM136.894 44.7741C135.886 44.7741 135.046 44.4381 134.374 43.7661C133.73 43.0661 133.408 42.2261 133.408 41.2461C133.408 40.2381 133.73 39.3981 134.374 38.7261C135.046 38.0541 135.886 37.7181 136.894 37.7181C137.902 37.7181 138.728 38.0541 139.372 38.7261C140.016 39.3981 140.338 40.2381 140.338 41.2461C140.338 42.2261 140.016 43.0661 139.372 43.7661C138.728 44.4381 137.902 44.7741 136.894 44.7741ZM158.093 68.0001V56.3661C158.093 55.3021 157.757 54.4481 157.085 53.8041C156.441 53.1321 155.615 52.7961 154.607 52.7961C153.907 52.7961 153.291 52.9501 152.759 53.2581C152.227 53.5381 151.807 53.9581 151.499 54.5181C151.191 55.0501 151.037 55.6661 151.037 56.3661L148.559 55.1481C148.559 53.5521 148.909 52.1521 149.609 50.9481C150.309 49.7441 151.275 48.8201 152.507 48.1761C153.767 47.5041 155.181 47.1681 156.749 47.1681C158.261 47.1681 159.591 47.5321 160.739 48.2601C161.915 48.9601 162.839 49.8981 163.511 51.0741C164.183 52.2501 164.519 53.5381 164.519 54.9381V68.0001H158.093ZM144.611 68.0001V47.5881H151.037V68.0001H144.611ZM185.338 68.4201C183.406 68.4201 181.684 67.9581 180.172 67.0341C178.688 66.1101 177.512 64.8501 176.644 63.2541C175.804 61.6581 175.384 59.8381 175.384 57.7941C175.384 55.7501 175.804 53.9301 176.644 52.3341C177.512 50.7381 178.688 49.4781 180.172 48.5541C181.684 47.6301 183.406 47.1681 185.338 47.1681C186.738 47.1681 187.998 47.4341 189.118 47.9661C190.266 48.4981 191.204 49.2401 191.932 50.1921C192.688 51.1161 193.108 52.1801 193.192 53.3841V61.9941C193.108 63.1981 192.702 64.2901 191.974 65.2701C191.246 66.2221 190.308 66.9921 189.16 67.5801C188.012 68.1401 186.738 68.4201 185.338 68.4201ZM186.472 62.6241C187.396 62.6241 188.194 62.4281 188.866 62.0361C189.538 61.6161 190.07 61.0421 190.462 60.3141C190.854 59.5861 191.05 58.7461 191.05 57.7941C191.05 56.8421 190.854 56.0161 190.462 55.3161C190.098 54.5881 189.566 54.0141 188.866 53.5941C188.194 53.1741 187.41 52.9641 186.514 52.9641C185.618 52.9641 184.82 53.1741 184.12 53.5941C183.448 54.0141 182.902 54.5881 182.482 55.3161C182.09 56.0441 181.894 56.8701 181.894 57.7941C181.894 58.7181 182.09 59.5441 182.482 60.2721C182.874 61.0001 183.42 61.5741 184.12 61.9941C184.82 62.4141 185.604 62.6241 186.472 62.6241ZM197.098 68.0001H190.798V62.4981L191.764 57.5421L190.672 52.5861V37.5081H197.098V68.0001ZM210.694 68.4621C208.818 68.4621 207.152 68.0841 205.696 67.3281C204.268 66.5441 203.148 65.4801 202.336 64.1361C201.524 62.7641 201.118 61.1961 201.118 59.4321V47.5881H207.544V59.3481C207.544 60.0481 207.656 60.6501 207.88 61.1541C208.132 61.6581 208.496 62.0501 208.972 62.3301C209.448 62.6101 210.022 62.7501 210.694 62.7501C211.646 62.7501 212.402 62.4561 212.962 61.8681C213.522 61.2521 213.802 60.4121 213.802 59.3481V47.5881H220.228V59.3901C220.228 61.1821 219.822 62.7641 219.01 64.1361C218.198 65.4801 217.078 66.5441 215.65 67.3281C214.222 68.0841 212.57 68.4621 210.694 68.4621ZM232.849 68.0001V38.3481H237.553L249.229 56.5341H246.835L258.469 38.3481H263.215V68.0001H256.621V49.4781L257.797 49.7721L250.195 61.6161H245.827L238.267 49.7721L239.401 49.4781V68.0001H232.849ZM278.142 68.4621C276.042 68.4621 274.138 68.0001 272.43 67.0761C270.75 66.1241 269.42 64.8361 268.44 63.2121C267.46 61.5881 266.97 59.7681 266.97 57.7521C266.97 55.7361 267.46 53.9301 268.44 52.3341C269.42 50.7381 270.75 49.4781 272.43 48.5541C274.11 47.6021 276.014 47.1261 278.142 47.1261C280.27 47.1261 282.174 47.5881 283.854 48.5121C285.534 49.4361 286.864 50.7101 287.844 52.3341C288.824 53.9301 289.314 55.7361 289.314 57.7521C289.314 59.7681 288.824 61.5881 287.844 63.2121C286.864 64.8361 285.534 66.1241 283.854 67.0761C282.174 68.0001 280.27 68.4621 278.142 68.4621ZM278.142 62.6241C279.066 62.6241 279.878 62.4281 280.578 62.0361C281.278 61.6161 281.81 61.0421 282.174 60.3141C282.566 59.5581 282.762 58.7041 282.762 57.7521C282.762 56.8001 282.566 55.9741 282.174 55.2741C281.782 54.5461 281.236 53.9861 280.536 53.5941C279.864 53.1741 279.066 52.9641 278.142 52.9641C277.246 52.9641 276.448 53.1741 275.748 53.5941C275.048 53.9861 274.502 54.5461 274.11 55.2741C273.718 56.0021 273.522 56.8421 273.522 57.7941C273.522 58.7181 273.718 59.5581 274.11 60.3141C274.502 61.0421 275.048 61.6161 275.748 62.0361C276.448 62.4281 277.246 62.6241 278.142 62.6241ZM305.995 68.0001V56.3661C305.995 55.3021 305.659 54.4481 304.987 53.8041C304.343 53.1321 303.517 52.7961 302.509 52.7961C301.809 52.7961 301.193 52.9501 300.661 53.2581C300.129 53.5381 299.709 53.9581 299.401 54.5181C299.093 55.0501 298.939 55.6661 298.939 56.3661L296.461 55.1481C296.461 53.5521 296.811 52.1521 297.511 50.9481C298.211 49.7441 299.177 48.8201 300.409 48.1761C301.669 47.5041 303.083 47.1681 304.651 47.1681C306.163 47.1681 307.493 47.5321 308.641 48.2601C309.817 48.9601 310.741 49.8981 311.413 51.0741C312.085 52.2501 312.421 53.5381 312.421 54.9381V68.0001H305.995ZM292.513 68.0001V47.5881H298.939V68.0001H292.513ZM325.242 68.4201C323.31 68.4201 321.588 67.9581 320.076 67.0341C318.592 66.1101 317.416 64.8501 316.548 63.2541C315.708 61.6581 315.288 59.8381 315.288 57.7941C315.288 55.7501 315.708 53.9301 316.548 52.3341C317.416 50.7381 318.592 49.4781 320.076 48.5541C321.588 47.6301 323.31 47.1681 325.242 47.1681C326.642 47.1681 327.902 47.4341 329.022 47.9661C330.17 48.4981 331.108 49.2401 331.836 50.1921C332.592 51.1161 333.012 52.1801 333.096 53.3841V61.9941C333.012 63.1981 332.606 64.2901 331.878 65.2701C331.15 66.2221 330.212 66.9921 329.064 67.5801C327.916 68.1401 326.642 68.4201 325.242 68.4201ZM326.376 62.6241C327.3 62.6241 328.098 62.4281 328.77 62.0361C329.442 61.6161 329.974 61.0421 330.366 60.3141C330.758 59.5861 330.954 58.7461 330.954 57.7941C330.954 56.8421 330.758 56.0161 330.366 55.3161C330.002 54.5881 329.47 54.0141 328.77 53.5941C328.098 53.1741 327.314 52.9641 326.418 52.9641C325.522 52.9641 324.724 53.1741 324.024 53.5941C323.352 54.0141 322.806 54.5881 322.386 55.3161C321.994 56.0441 321.798 56.8701 321.798 57.7941C321.798 58.7181 321.994 59.5441 322.386 60.2721C322.778 61.0001 323.324 61.5741 324.024 61.9941C324.724 62.4141 325.508 62.6241 326.376 62.6241ZM337.002 68.0001H330.702V62.4981L331.668 57.5421L330.576 52.5861V37.5081H337.002V68.0001ZM351.607 68.4621C349.395 68.4621 347.421 68.0141 345.685 67.1181C343.977 66.1941 342.633 64.9201 341.653 63.2961C340.673 61.6721 340.183 59.8381 340.183 57.7941C340.183 55.7501 340.659 53.9301 341.611 52.3341C342.591 50.7101 343.907 49.4361 345.559 48.5121C347.211 47.5881 349.073 47.1261 351.145 47.1261C353.161 47.1261 354.939 47.5601 356.479 48.4281C358.019 49.2961 359.223 50.5001 360.091 52.0401C360.987 53.5801 361.435 55.3441 361.435 57.3321C361.435 57.6961 361.407 58.0881 361.351 58.5081C361.323 58.9001 361.253 59.3621 361.141 59.8941L343.543 59.9361V55.5261L358.411 55.4841L355.639 57.3321C355.611 56.1561 355.429 55.1901 355.093 54.4341C354.757 53.6501 354.253 53.0621 353.581 52.6701C352.937 52.2501 352.139 52.0401 351.187 52.0401C350.179 52.0401 349.297 52.2781 348.541 52.7541C347.813 53.2021 347.239 53.8461 346.819 54.6861C346.427 55.5261 346.231 56.5481 346.231 57.7521C346.231 58.9561 346.441 59.9921 346.861 60.8601C347.309 61.7001 347.925 62.3581 348.709 62.8341C349.521 63.2821 350.473 63.5061 351.565 63.5061C352.573 63.5061 353.483 63.3381 354.295 63.0021C355.107 62.6381 355.821 62.1061 356.437 61.4061L359.965 64.9341C358.957 66.1101 357.739 66.9921 356.311 67.5801C354.883 68.1681 353.315 68.4621 351.607 68.4621Z" fill="white"/>
</g>
</g>
<defs>
<filter id="filter0_f_107_183" x="0" y="0" width="404" height="114" filterUnits="userSpaceOnUse" color-interpolation-filters="sRGB">
<feFlood flood-opacity="0" result="BackgroundImageFix"/>
<feBlend mode="normal" in="SourceGraphic" in2="BackgroundImageFix" result="shape"/>
<feGaussianBlur stdDeviation="10" result="effect1_foregroundBlur_107_183"/>
</filter>
<filter id="filter1_i_107_183" x="42.3193" y="37.5081" width="319.115" height="34.9541" filterUnits="userSpaceOnUse" color-interpolation-filters="sRGB">
<feFlood flood-opacity="0" result="BackgroundImageFix"/>
<feBlend mode="normal" in="SourceGraphic" in2="BackgroundImageFix" result="shape"/>
<feColorMatrix in="SourceAlpha" type="matrix" values="0 0 0 0 0 0 0 0 0 0 0 0 0 0 0 0 0 0 127 0" result="hardAlpha"/>
<feOffset dy="4"/>
<feGaussianBlur stdDeviation="2"/>
<feComposite in2="hardAlpha" operator="arithmetic" k2="-1" k3="1"/>
<feColorMatrix type="matrix" values="0 0 0 0 0 0 0 0 0 0 0 0 0 0 0 0 0 0 0.25 0"/>
<feBlend mode="normal" in2="shape" result="effect1_innerShadow_107_183"/>
</filter>
<clipPath id="clip0_107_183">
<rect width="404" height="114" fill="white"/>
</clipPath>
</defs>
</svg>
