<svg width="46" height="47" viewBox="0 0 46 47" fill="none" xmlns="http://www.w3.org/2000/svg">
<g clip-path="url(#clip0_187_361)">
<path d="M21.7961 28.58L21.7601 21.74L22.7321 21.704C23.5721 21.704 24.3041 21.524 24.9281 21.164C25.5761 20.804 26.0801 20.312 26.4401 19.688C26.8001 19.064 26.9801 18.368 26.9801 17.6C26.9801 16.808 26.8001 16.112 26.4401 15.512C26.1041 14.912 25.6121 14.444 24.9641 14.108C24.3401 13.772 23.5961 13.604 22.7321 13.604C21.5801 13.604 20.5841 13.892 19.7441 14.468C18.9041 15.044 18.2321 15.86 17.7281 16.916L15.3521 14.936C16.0481 13.52 17.0441 12.416 18.3401 11.624C19.6601 10.832 21.1721 10.436 22.8761 10.436C24.3401 10.436 25.6361 10.736 26.7641 11.336C27.8921 11.912 28.7681 12.728 29.3921 13.784C30.0161 14.816 30.3281 16.016 30.3281 17.384C30.3281 18.632 30.0401 19.772 29.4641 20.804C28.9121 21.812 28.1201 22.652 27.0881 23.324C26.0801 23.972 24.8801 24.392 23.4881 24.584L24.8921 23.144L24.6041 28.58H21.7961ZM23.1641 36.86C22.4921 36.86 21.9281 36.632 21.4721 36.176C21.0401 35.72 20.8241 35.156 20.8241 34.484C20.8241 33.812 21.0401 33.26 21.4721 32.828C21.9281 32.372 22.4921 32.144 23.1641 32.144C23.8361 32.144 24.3881 32.372 24.8201 32.828C25.2761 33.26 25.5041 33.812 25.5041 34.484C25.5041 35.156 25.2761 35.72 24.8201 36.176C24.3881 36.632 23.8361 36.86 23.1641 36.86Z" fill="white"/>
</g>
<defs>
<clipPath id="clip0_187_361">
<rect y="0.5" width="46" height="46" rx="23" fill="white"/>
</clipPath>
</defs>
</svg>
