<svg width="46" height="47" viewBox="0 0 46 47" fill="none" xmlns="http://www.w3.org/2000/svg">
<path d="M21.3333 38.5V25.2083C19.5556 25.2083 17.8472 24.8681 16.2083 24.1875C14.5694 23.5069 13.125 22.5417 11.875 21.2917C10.625 20.0417 9.66667 18.5972 9 16.9583C8.33333 15.3194 8 13.6111 8 11.8333V8.5H11.3333C13.0833 8.5 14.7778 8.84028 16.4167 9.52083C18.0556 10.2014 19.5 11.1667 20.75 12.4167C21.6111 13.2778 22.3264 14.2222 22.8958 15.25C23.4653 16.2778 23.9028 17.375 24.2083 18.5417C24.3472 18.3472 24.5 18.1597 24.6667 17.9792C24.8333 17.7986 25.0139 17.6111 25.2083 17.4167C26.4583 16.1667 27.9028 15.2014 29.5417 14.5208C31.1806 13.8403 32.8889 13.5 34.6667 13.5H38V16.8333C38 18.6111 37.6597 20.3194 36.9792 21.9583C36.2986 23.5972 35.3333 25.0417 34.0833 26.2917C32.8333 27.5417 31.3958 28.5 29.7708 29.1667C28.1458 29.8333 26.4444 30.1667 24.6667 30.1667V38.5H21.3333ZM21.3333 21.8333C21.3333 20.5 21.0764 19.2292 20.5625 18.0208C20.0486 16.8125 19.3194 15.7361 18.375 14.7917C17.4306 13.8472 16.3542 13.1181 15.1458 12.6042C13.9375 12.0903 12.6667 11.8333 11.3333 11.8333C11.3333 13.1667 11.5833 14.4444 12.0833 15.6667C12.5833 16.8889 13.3056 17.9722 14.25 18.9167C15.1944 19.8611 16.2778 20.5833 17.5 21.0833C18.7222 21.5833 20 21.8333 21.3333 21.8333ZM24.6667 26.8333C26 26.8333 27.2708 26.5833 28.4792 26.0833C29.6875 25.5833 30.7639 24.8611 31.7083 23.9167C32.6528 22.9722 33.3819 21.8889 33.8958 20.6667C34.4097 19.4444 34.6667 18.1667 34.6667 16.8333C33.3333 16.8333 32.0556 17.0903 30.8333 17.6042C29.6111 18.1181 28.5278 18.8472 27.5833 19.7917C26.6389 20.7361 25.9167 21.8125 25.4167 23.0208C24.9167 24.2292 24.6667 25.5 24.6667 26.8333Z" fill="white"/>
</svg>
