<svg width="46" height="47" viewBox="0 0 46 47" fill="none" xmlns="http://www.w3.org/2000/svg">
<path d="M23 24.0172C21.5645 24.0172 20.1612 23.5622 18.9676 22.7097C17.7741 21.8572 16.8438 20.6454 16.2944 19.2277C15.7451 17.81 15.6013 16.25 15.8814 14.745C16.1615 13.24 16.8527 11.8575 17.8678 10.7725C18.8828 9.68739 20.1761 8.94845 21.584 8.64908C22.9919 8.34972 24.4513 8.50336 25.7775 9.09059C27.1038 9.67782 28.2373 10.6723 29.0349 11.9482C29.8324 13.2241 30.2581 14.7241 30.2581 16.2586C30.2581 18.3163 29.4934 20.2898 28.1322 21.7448C26.7711 23.1998 24.925 24.0172 23 24.0172ZM23 11.6035C22.1387 11.6035 21.2967 11.8765 20.5806 12.388C19.8644 12.8995 19.3063 13.6265 18.9767 14.4772C18.647 15.3278 18.5608 16.2638 18.7288 17.1668C18.8969 18.0698 19.3116 18.8993 19.9207 19.5503C20.5297 20.2014 21.3057 20.6447 22.1504 20.8243C22.9952 21.004 23.8708 20.9118 24.6665 20.5594C25.4623 20.2071 26.1424 19.6104 26.6209 18.8449C27.0994 18.0794 27.3548 17.1793 27.3548 16.2586C27.3548 15.024 26.896 13.8399 26.0793 12.9669C25.2626 12.0939 24.155 11.6035 23 11.6035ZM36.5484 38.5C36.165 38.4946 35.7986 38.3294 35.5275 38.0396C35.2563 37.7497 35.1018 37.3582 35.0968 36.9483C35.0968 32.9138 33.0452 30.2241 23 30.2241C12.9548 30.2241 10.9032 32.9138 10.9032 36.9483C10.9032 37.3598 10.7503 37.7545 10.4781 38.0455C10.2058 38.3365 9.8366 38.5 9.45161 38.5C9.06662 38.5 8.6974 38.3365 8.42517 38.0455C8.15294 37.7545 8 37.3598 8 36.9483C8 27.1207 18.5097 27.1207 23 27.1207C27.4903 27.1207 38 27.1207 38 36.9483C37.995 37.3582 37.8404 37.7497 37.5693 38.0396C37.2981 38.3294 36.9318 38.4946 36.5484 38.5Z" fill="white"/>
</svg>
