<svg width="46" height="47" viewBox="0 0 46 47" fill="none" xmlns="http://www.w3.org/2000/svg">
<path d="M17.25 27.5C16.9185 27.5 16.6005 27.6054 16.3661 27.7929C16.1317 27.9804 16 28.2348 16 28.5C16 28.7652 16.1317 29.0196 16.3661 29.2071C16.6005 29.3946 16.9185 29.5 17.25 29.5H29.75C30.0815 29.5 30.3995 29.3946 30.6339 29.2071C30.8683 29.0196 31 28.7652 31 28.5C31 28.2348 30.8683 27.9804 30.6339 27.7929C30.3995 27.6054 30.0815 27.5 29.75 27.5H17.25ZM17.25 31.5C16.9185 31.5 16.6005 31.6054 16.3661 31.7929C16.1317 31.9804 16 32.2348 16 32.5C16 32.7652 16.1317 33.0196 16.3661 33.2071C16.6005 33.3946 16.9185 33.5 17.25 33.5H29.75C30.0815 33.5 30.3995 33.3946 30.6339 33.2071C30.8683 33.0196 31 32.7652 31 32.5C31 32.2348 30.8683 31.9804 30.6339 31.7929C30.3995 31.6054 30.0815 31.5 29.75 31.5H17.25Z" fill="white"/>
<path d="M38 34.75V16.9375L26.75 8.5H13C11.6739 8.5 10.4021 8.89509 9.46447 9.59835C8.52678 10.3016 8 11.2554 8 12.25V34.75C8 35.7446 8.52678 36.6984 9.46447 37.4016C10.4021 38.1049 11.6739 38.5 13 38.5H33C34.3261 38.5 35.5979 38.1049 36.5355 37.4016C37.4732 36.6984 38 35.7446 38 34.75ZM26.75 14.125C26.75 14.8709 27.1451 15.5863 27.8483 16.1137C28.5516 16.6412 29.5054 16.9375 30.5 16.9375H35.5V34.75C35.5 35.2473 35.2366 35.7242 34.7678 36.0758C34.2989 36.4275 33.663 36.625 33 36.625H13C12.337 36.625 11.7011 36.4275 11.2322 36.0758C10.7634 35.7242 10.5 35.2473 10.5 34.75V12.25C10.5 11.7527 10.7634 11.2758 11.2322 10.9242C11.7011 10.5725 12.337 10.375 13 10.375H26.75V14.125Z" fill="white"/>
</svg>
