<svg width="430" height="68" viewBox="0 0 430 68" fill="none" xmlns="http://www.w3.org/2000/svg">
<rect width="430" height="68" fill="black"/>
<path d="M33.25 33.5C32.9185 33.5 32.6005 33.6054 32.3661 33.7929C32.1317 33.9804 32 34.2348 32 34.5C32 34.7652 32.1317 35.0196 32.3661 35.2071C32.6005 35.3946 32.9185 35.5 33.25 35.5H45.75C46.0815 35.5 46.3995 35.3946 46.6339 35.2071C46.8683 35.0196 47 34.7652 47 34.5C47 34.2348 46.8683 33.9804 46.6339 33.7929C46.3995 33.6054 46.0815 33.5 45.75 33.5H33.25ZM33.25 37.5C32.9185 37.5 32.6005 37.6054 32.3661 37.7929C32.1317 37.9804 32 38.2348 32 38.5C32 38.7652 32.1317 39.0196 32.3661 39.2071C32.6005 39.3946 32.9185 39.5 33.25 39.5H45.75C46.0815 39.5 46.3995 39.3946 46.6339 39.2071C46.8683 39.0196 47 38.7652 47 38.5C47 38.2348 46.8683 37.9804 46.6339 37.7929C46.3995 37.6054 46.0815 37.5 45.75 37.5H33.25Z" fill="white"/>
<path d="M54 40.75V22.9375L42.75 14.5H29C27.6739 14.5 26.4021 14.8951 25.4645 15.5983C24.5268 16.3016 24 17.2554 24 18.25V40.75C24 41.7446 24.5268 42.6984 25.4645 43.4016C26.4021 44.1049 27.6739 44.5 29 44.5H49C50.3261 44.5 51.5979 44.1049 52.5355 43.4016C53.4732 42.6984 54 41.7446 54 40.75ZM42.75 20.125C42.75 20.8709 43.1451 21.5863 43.8483 22.1137C44.5516 22.6412 45.5054 22.9375 46.5 22.9375H51.5V40.75C51.5 41.2473 51.2366 41.7242 50.7678 42.0758C50.2989 42.4275 49.663 42.625 49 42.625H29C28.337 42.625 27.7011 42.4275 27.2322 42.0758C26.7634 41.7242 26.5 41.2473 26.5 40.75V18.25C26.5 17.7527 26.7634 17.2758 27.2322 16.9242C27.7011 16.5725 28.337 16.375 29 16.375H42.75V20.125Z" fill="white"/>
<g clip-path="url(#clip0_125_3312)">
<path d="M125.796 34.58L125.76 27.74L126.732 27.704C127.572 27.704 128.304 27.524 128.928 27.164C129.576 26.804 130.08 26.312 130.44 25.688C130.8 25.064 130.98 24.368 130.98 23.6C130.98 22.808 130.8 22.112 130.44 21.512C130.104 20.912 129.612 20.444 128.964 20.108C128.34 19.772 127.596 19.604 126.732 19.604C125.58 19.604 124.584 19.892 123.744 20.468C122.904 21.044 122.232 21.86 121.728 22.916L119.352 20.936C120.048 19.52 121.044 18.416 122.34 17.624C123.66 16.832 125.172 16.436 126.876 16.436C128.34 16.436 129.636 16.736 130.764 17.336C131.892 17.912 132.768 18.728 133.392 19.784C134.016 20.816 134.328 22.016 134.328 23.384C134.328 24.632 134.04 25.772 133.464 26.804C132.912 27.812 132.12 28.652 131.088 29.324C130.08 29.972 128.88 30.392 127.488 30.584L128.892 29.144L128.604 34.58H125.796ZM127.164 42.86C126.492 42.86 125.928 42.632 125.472 42.176C125.04 41.72 124.824 41.156 124.824 40.484C124.824 39.812 125.04 39.26 125.472 38.828C125.928 38.372 126.492 38.144 127.164 38.144C127.836 38.144 128.388 38.372 128.82 38.828C129.276 39.26 129.504 39.812 129.504 40.484C129.504 41.156 129.276 41.72 128.82 42.176C128.388 42.632 127.836 42.86 127.164 42.86Z" fill="white"/>
</g>
<rect x="192" y="6.5" width="46" height="46" rx="23" fill="white"/>
<g clip-path="url(#clip1_125_3312)">
<path d="M201.363 24.0453V15.8635H209.545" stroke="#333333" stroke-width="4"/>
<path d="M220.454 15.8635H228.636V24.0453" stroke="#333333" stroke-width="4"/>
<path d="M228.636 34.9546V43.1364H220.454" stroke="#333333" stroke-width="4"/>
<path d="M209.545 43.1364H201.363V34.9546" stroke="#333333" stroke-width="4"/>
</g>
<path d="M301.333 44.5V31.2083C299.556 31.2083 297.847 30.8681 296.208 30.1875C294.569 29.5069 293.125 28.5417 291.875 27.2917C290.625 26.0417 289.667 24.5972 289 22.9583C288.333 21.3194 288 19.6111 288 17.8333V14.5H291.333C293.083 14.5 294.778 14.8403 296.417 15.5208C298.056 16.2014 299.5 17.1667 300.75 18.4167C301.611 19.2778 302.326 20.2222 302.896 21.25C303.465 22.2778 303.903 23.375 304.208 24.5417C304.347 24.3472 304.5 24.1597 304.667 23.9792C304.833 23.7986 305.014 23.6111 305.208 23.4167C306.458 22.1667 307.903 21.2014 309.542 20.5208C311.181 19.8403 312.889 19.5 314.667 19.5H318V22.8333C318 24.6111 317.66 26.3194 316.979 27.9583C316.299 29.5972 315.333 31.0417 314.083 32.2917C312.833 33.5417 311.396 34.5 309.771 35.1667C308.146 35.8333 306.444 36.1667 304.667 36.1667V44.5H301.333ZM301.333 27.8333C301.333 26.5 301.076 25.2292 300.562 24.0208C300.049 22.8125 299.319 21.7361 298.375 20.7917C297.431 19.8472 296.354 19.1181 295.146 18.6042C293.937 18.0903 292.667 17.8333 291.333 17.8333C291.333 19.1667 291.583 20.4444 292.083 21.6667C292.583 22.8889 293.306 23.9722 294.25 24.9167C295.194 25.8611 296.278 26.5833 297.5 27.0833C298.722 27.5833 300 27.8333 301.333 27.8333ZM304.667 32.8333C306 32.8333 307.271 32.5833 308.479 32.0833C309.688 31.5833 310.764 30.8611 311.708 29.9167C312.653 28.9722 313.382 27.8889 313.896 26.6667C314.41 25.4444 314.667 24.1667 314.667 22.8333C313.333 22.8333 312.056 23.0903 310.833 23.6042C309.611 24.1181 308.528 24.8472 307.583 25.7917C306.639 26.7361 305.917 27.8125 305.417 29.0208C304.917 30.2292 304.667 31.5 304.667 32.8333Z" fill="white"/>
<path d="M391 30.0172C389.564 30.0172 388.161 29.5622 386.968 28.7097C385.774 27.8572 384.844 26.6454 384.294 25.2277C383.745 23.81 383.601 22.25 383.881 20.745C384.161 19.24 384.853 17.8575 385.868 16.7725C386.883 15.6874 388.176 14.9485 389.584 14.6491C390.992 14.3497 392.451 14.5034 393.778 15.0906C395.104 15.6778 396.237 16.6723 397.035 17.9482C397.832 19.2241 398.258 20.7241 398.258 22.2586C398.258 24.3163 397.493 26.2898 396.132 27.7448C394.771 29.1998 392.925 30.0172 391 30.0172ZM391 17.6035C390.139 17.6035 389.297 17.8765 388.581 18.388C387.864 18.8995 387.306 19.6265 386.977 20.4772C386.647 21.3278 386.561 22.2638 386.729 23.1668C386.897 24.0698 387.312 24.8993 387.921 25.5503C388.53 26.2014 389.306 26.6447 390.15 26.8243C390.995 27.004 391.871 26.9118 392.667 26.5594C393.462 26.2071 394.142 25.6104 394.621 24.8449C395.099 24.0794 395.355 23.1793 395.355 22.2586C395.355 21.024 394.896 19.8399 394.079 18.9669C393.263 18.0939 392.155 17.6035 391 17.6035ZM404.548 44.5C404.165 44.4946 403.799 44.3294 403.527 44.0396C403.256 43.7497 403.102 43.3582 403.097 42.9483C403.097 38.9138 401.045 36.2241 391 36.2241C380.955 36.2241 378.903 38.9138 378.903 42.9483C378.903 43.3598 378.75 43.7545 378.478 44.0455C378.206 44.3365 377.837 44.5 377.452 44.5C377.067 44.5 376.697 44.3365 376.425 44.0455C376.153 43.7545 376 43.3598 376 42.9483C376 33.1207 386.51 33.1207 391 33.1207C395.49 33.1207 406 33.1207 406 42.9483C405.995 43.3582 405.84 43.7497 405.569 44.0396C405.298 44.3294 404.932 44.4946 404.548 44.5Z" fill="white"/>
<defs>
<clipPath id="clip0_125_3312">
<rect x="104" y="6.5" width="46" height="46" rx="23" fill="white"/>
</clipPath>
<clipPath id="clip1_125_3312">
<rect x="200" y="14.5" width="30" height="30" rx="4" fill="white"/>
</clipPath>
</defs>
</svg>
